<?xml version="1.0" encoding="utf-8"?>
<!-- Generator: Adobe Illustrator 18.0.0, SVG Export Plug-In . SVG Version: 6.00 Build 0)  -->
<!DOCTYPE svg PUBLIC "-//W3C//DTD SVG 1.1//EN" "http://www.w3.org/Graphics/SVG/1.1/DTD/svg11.dtd" [
	<!ENTITY ns_extend "http://ns.adobe.com/Extensibility/1.0/">
	<!ENTITY ns_ai "http://ns.adobe.com/AdobeIllustrator/10.0/">
	<!ENTITY ns_graphs "http://ns.adobe.com/Graphs/1.0/">
	<!ENTITY ns_vars "http://ns.adobe.com/Variables/1.0/">
	<!ENTITY ns_imrep "http://ns.adobe.com/ImageReplacement/1.0/">
	<!ENTITY ns_sfw "http://ns.adobe.com/SaveForWeb/1.0/">
	<!ENTITY ns_custom "http://ns.adobe.com/GenericCustomNamespace/1.0/">
	<!ENTITY ns_adobe_xpath "http://ns.adobe.com/XPath/1.0/">
]>
<svg version="1.1" id="icons" xmlns:x="&ns_extend;" xmlns:i="&ns_ai;" xmlns:graph="&ns_graphs;"
	 xmlns="http://www.w3.org/2000/svg" xmlns:xlink="http://www.w3.org/1999/xlink" x="0px" y="0px" viewBox="0 0 24 24"
	 enable-background="new 0 0 24 24" xml:space="preserve">
<metadata>
	<sfw  xmlns="&ns_sfw;">
		<slices></slices>
		<sliceSourceBounds  height="464" width="332.001" x="20.999" y="-419" bottomLeftOrigin="true"></sliceSourceBounds>
		<optimizationSettings>
			<targetSettings  fileFormat="PNG24Format" targetSettingsID="0">
				<PNG24Format  transparency="true" filtered="false" noMatteColor="false" matteColor="#FFFFFF" interlaced="false">
					</PNG24Format>
			</targetSettings>
		</optimizationSettings>
	</sfw>
</metadata>
<path fill="#5B5B5B" d="M22,5H7.442C6.741,3.779,5.429,3,4,3C1.794,3,0,4.794,0,7s1.794,4,4,4c1.434,0,2.75-0.784,3.443-2H22
	c1.103,0,2-0.897,2-2S23.103,5,22,5z M4,10c-1.654,0-3-1.346-3-3s1.346-3,3-3c1.154,0,2.212,0.672,2.705,1.728
	C6.9,6.111,7,6.539,7,7S6.9,7.889,6.697,8.289C6.212,9.328,5.154,10,4,10z M22,8H7.873c0.006-0.022,0.008-0.046,0.013-0.068
	c0.008-0.034,0.013-0.068,0.02-0.102C7.964,7.562,8,7.286,8,7c0-0.283-0.036-0.556-0.092-0.821C7.9,6.141,7.895,6.103,7.886,6.067
	C7.881,6.045,7.879,6.022,7.873,6H22c0.551,0,1,0.448,1,1S22.551,8,22,8z"/>
<path fill="#5B5B5B" d="M20,13c-1.434,0-2.75,0.784-3.443,2H2c-1.103,0-2,0.897-2,2s0.897,2,2,2h14.558c0.701,1.221,2.013,2,3.442,2
	c2.206,0,4-1.794,4-4S22.206,13,20,13z M2,18c-0.551,0-1-0.448-1-1s0.449-1,1-1h14.127c-0.006,0.022-0.008,0.046-0.013,0.068
	c-0.008,0.034-0.013,0.068-0.02,0.102C16.036,16.438,16,16.714,16,17c0,0.283,0.036,0.556,0.092,0.821
	c0.008,0.037,0.013,0.075,0.022,0.112c0.005,0.022,0.007,0.045,0.013,0.067H2z M20,20c-1.12,0-2.146-0.637-2.656-1.64
	c-0.015-0.051-0.038-0.096-0.067-0.139c-0.061-0.126-0.103-0.26-0.144-0.395c-0.019-0.063-0.047-0.123-0.062-0.188
	C17.026,17.433,17,17.221,17,17c0-0.461,0.1-0.889,0.303-1.289C17.788,14.672,18.846,14,20,14c1.654,0,3,1.346,3,3S21.654,20,20,20z
	"/>
</svg>
