<?xml version="1.0" encoding="UTF-8"?>
<svg width="18px" height="13px" viewBox="0 0 18 13" version="1.1" xmlns="http://www.w3.org/2000/svg" xmlns:xlink="http://www.w3.org/1999/xlink">
    <!-- Generator: Sketch 41.1 (35376) - http://www.bohemiancoding.com/sketch -->
    <title>Combined Shape</title>
    <desc>Created with Sketch.</desc>
    <defs></defs>
    <g id="Page-1" stroke="none" stroke-width="1" fill="none" fill-rule="evenodd">
        <path d="M15.9,13 C15.6,13 15.4,12.9 15.2,12.7 L14.2,11.9 L8.4,11.9 C7.1,11.9 6,10.8 6,9.5 L6,7 C6,5.7 7.1,4.6 8.4,4.6 L14.7,4.6 C16,4.6 17.1,5.7 17.1,7 L17.1,11.9 C17,12.5 16.5,13 15.9,13 Z M3.8,8.2 L2.8,9 C2.6,9.2 2.3,9.3 2.1,9.3 C1.9,9.3 1.8,9.3 1.6,9.2 C1.2,9 0.9,8.6 0.9,8.2 L0.9,3.3 C0.9,2 2,0.9 3.3,0.9 L9.6,0.9 C10.9,0.9 12,2 12,3.3 L12,4.1 L11,4.1 C11,4.1 8.74718296,4.1000061 8.73858331,4.1000061 C6.80737305,4.1 5.4,4.8147583 5.40765381,7.03045654 L5.4,8.2 L3.8,8.2 Z M14.578,8.469 C14.578,8.145 14.326,7.884 14.002,7.884 C13.678,7.884 13.417,8.145 13.417,8.469 C13.417,8.793 13.678,9.045 14.002,9.045 C14.326,9.045 14.578,8.793 14.578,8.469 Z M12.2745,8.469 C12.2745,8.145 12.0225,7.884 11.6985,7.884 C11.3745,7.884 11.1135,8.145 11.1135,8.469 C11.1135,8.793 11.3745,9.045 11.6985,9.045 C12.0225,9.045 12.2745,8.793 12.2745,8.469 Z M9.971,8.469 C9.971,8.145 9.719,7.884 9.395,7.884 C9.071,7.884 8.81,8.145 8.81,8.469 C8.81,8.793 9.071,9.045 9.395,9.045 C9.719,9.045 9.971,8.793 9.971,8.469 Z" id="Combined-Shape" fill="#FFFFFF"></path>
    </g>
</svg>