<?xml version="1.0" encoding="utf-8"?>
<!-- Generator: Adobe Illustrator 18.0.0, SVG Export Plug-In . SVG Version: 6.00 Build 0)  -->
<!DOCTYPE svg PUBLIC "-//W3C//DTD SVG 1.1//EN" "http://www.w3.org/Graphics/SVG/1.1/DTD/svg11.dtd" [
	<!ENTITY ns_extend "http://ns.adobe.com/Extensibility/1.0/">
	<!ENTITY ns_ai "http://ns.adobe.com/AdobeIllustrator/10.0/">
	<!ENTITY ns_graphs "http://ns.adobe.com/Graphs/1.0/">
	<!ENTITY ns_vars "http://ns.adobe.com/Variables/1.0/">
	<!ENTITY ns_imrep "http://ns.adobe.com/ImageReplacement/1.0/">
	<!ENTITY ns_sfw "http://ns.adobe.com/SaveForWeb/1.0/">
	<!ENTITY ns_custom "http://ns.adobe.com/GenericCustomNamespace/1.0/">
	<!ENTITY ns_adobe_xpath "http://ns.adobe.com/XPath/1.0/">
]>
<svg version="1.1" id="icons" xmlns:x="&ns_extend;" xmlns:i="&ns_ai;" xmlns:graph="&ns_graphs;"
	 xmlns="http://www.w3.org/2000/svg" xmlns:xlink="http://www.w3.org/1999/xlink" x="0px" y="0px" viewBox="0 0 24 24"
	 enable-background="new 0 0 24 24" xml:space="preserve">

<path fill="#fff" d="M10.5,9H11v14.5c0,0.276,0.224,0.5,0.5,0.5s0.5-0.224,0.5-0.5V9h0.5C13.327,9,14,8.327,14,7.5v-4
	C14,2.673,13.327,2,12.5,2H12V0.5C12,0.224,11.776,0,11.5,0S11,0.224,11,0.5V2h-0.5C9.673,2,9,2.673,9,3.5v4C9,8.327,9.673,9,10.5,9
	z M10,3.5C10,3.224,10.224,3,10.5,3h2C12.776,3,13,3.224,13,3.5v4C13,7.776,12.776,8,12.5,8h-2C10.224,8,10,7.776,10,7.5V3.5z"/>
<path fill="#fff" d="M3.5,22H4v1.5C4,23.776,4.224,24,4.5,24S5,23.776,5,23.5V22h0.5C6.327,22,7,21.327,7,20.5v-4
	C7,15.673,6.327,15,5.5,15H5V0.5C5,0.224,4.776,0,4.5,0S4,0.224,4,0.5V15H3.5C2.673,15,2,15.673,2,16.5v4C2,21.327,2.673,22,3.5,22z
	 M3,16.5C3,16.224,3.224,16,3.5,16h2C5.776,16,6,16.224,6,16.5v4C6,20.776,5.776,21,5.5,21h-2C3.224,21,3,20.776,3,20.5V16.5z"/>
<path fill="#fff" d="M17.5,18H18v5.5c0,0.276,0.224,0.5,0.5,0.5s0.5-0.224,0.5-0.5V18h0.5c0.827,0,1.5-0.673,1.5-1.5v-4
	c0-0.827-0.673-1.5-1.5-1.5H19V0.5C19,0.224,18.776,0,18.5,0S18,0.224,18,0.5V11h-0.5c-0.827,0-1.5,0.673-1.5,1.5v4
	C16,17.327,16.673,18,17.5,18z M17,12.5c0-0.276,0.224-0.5,0.5-0.5h2c0.276,0,0.5,0.224,0.5,0.5v4c0,0.276-0.224,0.5-0.5,0.5h-2
	c-0.276,0-0.5-0.224-0.5-0.5V12.5z"/>
</svg>
